<svg xmlns="http://www.w3.org/2000/svg" viewBox="0 0 32 32" fill="none">
  <!-- TeamHub AI mark — favicon / app icon (soft squircle + Sky/Azure gradient) -->
  <defs>
    <linearGradient id="teamhub-favicon" x1="0" y1="0" x2="1" y2="1">
      <stop offset="0" stop-color="#0EA5E9" />
      <stop offset="1" stop-color="#0369A1" />
    </linearGradient>
  </defs>

  <rect x="2" y="2" width="28" height="28" rx="9" fill="url(#teamhub-favicon)" />

  <!-- left person -->
  <circle cx="9.8" cy="12.8" r="2" fill="#FFFFFF" />
  <path
    fill="#FFFFFF"
    d="M6.2 20.6c0-1.9 1.6-3.2 3.6-3.2s3.6 1.3 3.6 3.2v.35H6.2v-.35Z"
  />
  <!-- right person -->
  <circle cx="22.2" cy="12.8" r="2" fill="#FFFFFF" />
  <path
    fill="#FFFFFF"
    d="M18.6 20.6c0-1.9 1.6-3.2 3.6-3.2s3.6 1.3 3.6 3.2v.35h-7.2v-.35Z"
  />
  <!-- center person + stem -->
  <circle cx="16" cy="11.6" r="2.4" fill="#FFFFFF" />
  <path
    fill="#FFFFFF"
    d="M11.8 21c0-2.3 1.9-3.85 4.2-3.85S20.2 18.7 20.2 21v.4h-8.4V21Z"
  />
  <rect x="15.2" y="21.1" width="1.6" height="3.4" rx="0.8" fill="#FFFFFF" />
</svg>
